<svg xmlns="http://www.w3.org/2000/svg" viewBox="0 0 128.69 164.78"><defs><style>.cls-1{stroke:#000;stroke-miterlimit:10;stroke-width:0.25px;}</style></defs><title>Asset 12</title><g id="Layer_2" data-name="Layer 2"><g id="Layer_1-2" data-name="Layer 1"><path class="cls-1" d="M1.21,27.94a3.25,3.25,0,0,1,3.25,3.25,1.09,1.09,0,1,0,2.17,0,3.26,3.26,0,0,1,3.26-3.25,1.09,1.09,0,0,0,0-2.17,3.26,3.26,0,0,1-3.26-3.25,1.09,1.09,0,1,0-2.17,0,3.25,3.25,0,0,1-3.25,3.25,1.09,1.09,0,1,0,0,2.17Zm4.34-2.17a5.26,5.26,0,0,0,1.08,1.08,5.58,5.58,0,0,0-1.08,1.09,5.63,5.63,0,0,0-1.09-1.09A5.31,5.31,0,0,0,5.55,25.77Z"/><path class="cls-1" d="M95.21,94.94a3.25,3.25,0,0,1,3.25,3.25,1.09,1.09,0,1,0,2.17,0,3.26,3.26,0,0,1,3.26-3.25,1.09,1.09,0,0,0,0-2.17,3.26,3.26,0,0,1-3.26-3.25,1.09,1.09,0,1,0-2.17,0,3.25,3.25,0,0,1-3.25,3.25,1.09,1.09,0,1,0,0,2.17Zm4.34-2.17a5.26,5.26,0,0,0,1.08,1.08,5.58,5.58,0,0,0-1.08,1.09,5.63,5.63,0,0,0-1.09-1.09A5.31,5.31,0,0,0,99.55,92.77Z"/><path d="M61.78,85.27a1,1,0,0,0,.64-.38c.15-.22,3.84-5.24,2.33-9.76a4.86,4.86,0,0,0-5.36-3.47,4.35,4.35,0,0,0-3.53,3.24,4.34,4.34,0,0,0-4.49,1.69A4.85,4.85,0,0,0,52,82.94c2.07,2.1,5.21,2.51,7.37,2.51A14.38,14.38,0,0,0,61.78,85.27ZM53,77.76a2.28,2.28,0,0,1,1.87-1,3.06,3.06,0,0,1,1.38.35,1,1,0,0,0,1,0,1,1,0,0,0,.48-.85,2.42,2.42,0,0,1,2-2.62,2.85,2.85,0,0,1,3.15,2.12c1,2.95-1.1,6.5-1.82,7.59-1.29.15-5.4.4-7.59-1.82A2.86,2.86,0,0,1,53,77.76Z"/><path d="M122,149.38a18.2,18.2,0,0,0-13.44-4l-1.59.17h0a16,16,0,0,1-12-3.82,17.26,17.26,0,0,1-6-11.29,16.24,16.24,0,0,1,3-11.55,18.15,18.15,0,0,0,11.95,2.94c.21,0,5.22-.37,7.54-3.06a4.75,4.75,0,0,0,1.16-3.64,4.67,4.67,0,0,0-1.76-3.37c-2.74-2.19-7.71-1.54-7.91-1.51a18.26,18.26,0,0,0-11.33,5.89,16.17,16.17,0,0,1-5.79-10.86A18.35,18.35,0,0,0,65.6,89a1,1,0,1,0,.21,2,16.35,16.35,0,0,1,17.93,14.55,18.18,18.18,0,0,0,6.52,12.21,18.2,18.2,0,0,0-3.35,13,19.22,19.22,0,0,0,6.73,12.59,18,18,0,0,0,13.36,4.3h0l1.73-.18a16.32,16.32,0,0,1,17.93,14.55,1,1,0,0,0,1,.9h.11a1,1,0,0,0,.89-1.1A18.25,18.25,0,0,0,122,149.38Zm-18.9-37.15c1.2-.16,4.67-.29,6.4,1.09a2.7,2.7,0,0,1,1,2,2.8,2.8,0,0,1-.69,2.16c-1.47,1.71-4.94,2.29-6.19,2.38a16.22,16.22,0,0,1-10.51-2.5A16.28,16.28,0,0,1,103.11,112.23Z"/><path d="M40.62,63.45A15.31,15.31,0,0,0,51.5,68a1,1,0,0,0,1-1,1,1,0,0,0-1-1h0a13.42,13.42,0,0,1-13.41-13.4A15.31,15.31,0,0,0,33.78,41.9a15.26,15.26,0,0,0,3.81-10.45A16.25,16.25,0,0,0,33,20.34a15.18,15.18,0,0,0-10.82-4.73h-1.5a13.33,13.33,0,0,1-9.47-3.91A13.35,13.35,0,0,1,7.3,2.22a1,1,0,0,0-1-1h0a1,1,0,0,0-1,1A15.3,15.3,0,0,0,9.84,13.11a15.31,15.31,0,0,0,10.88,4.5h1.43a13.17,13.17,0,0,1,9.45,4.13,14.12,14.12,0,0,1,4,9.74,13.43,13.43,0,0,1-3.28,9.07,15.37,15.37,0,0,0-9.63-3.38c-.18,0-4.41-.14-6.61,1.94a4.15,4.15,0,0,0-1.33,3A4.06,4.06,0,0,0,16,45.2c2.13,2.1,6.37,2,6.53,2a15.35,15.35,0,0,0,9.87-3.85,13.31,13.31,0,0,1,3.72,9.24A15.26,15.26,0,0,0,40.62,63.45ZM22.45,45.17c-1,0-3.82-.16-5.08-1.4a2.08,2.08,0,0,1-.63-1.59,2.19,2.19,0,0,1,.7-1.62c1.22-1.16,3.78-1.4,5-1.4h.27A13.3,13.3,0,0,1,30.87,42,13.36,13.36,0,0,1,22.45,45.17Z"/><path d="M122.87,160.86a3.92,3.92,0,1,0-3.92,3.92A3.92,3.92,0,0,0,122.87,160.86Zm-5.84,0a1.92,1.92,0,1,1,1.92,1.92A1.92,1.92,0,0,1,117,160.86Z"/><path d="M101.45,152.92a3.92,3.92,0,1,0-3.92,3.91A3.93,3.93,0,0,0,101.45,152.92Zm-5.84,0a1.92,1.92,0,1,1,1.92,1.91A1.92,1.92,0,0,1,95.61,152.92Z"/><path d="M50.87,11.86A3.92,3.92,0,1,0,47,15.78,3.92,3.92,0,0,0,50.87,11.86Zm-5.84,0A1.92,1.92,0,1,1,47,13.78,1.92,1.92,0,0,1,45,11.86Z"/><path d="M29.45,3.92a3.92,3.92,0,1,0-3.92,3.91A3.93,3.93,0,0,0,29.45,3.92Zm-5.84,0a1.92,1.92,0,1,1,1.92,1.91A1.92,1.92,0,0,1,23.61,3.92Z"/></g></g></svg>