<svg xmlns="http://www.w3.org/2000/svg" xmlns:xlink="http://www.w3.org/1999/xlink" viewBox="0 0 297.43 297.44"><defs><style>.cls-1,.cls-2,.cls-3{fill:none;}.cls-2{stroke:#231f20;stroke-width:0.3px;}.cls-3,.cls-4{stroke:#000;stroke-miterlimit:10;}.cls-4{fill:url(#Crosses);}.cls-5{font-size:14.7px;font-family:GothamBold, Gotham Bold;}.cls-6{font-size:38.1px;font-family:Gotham-Book, Gotham;}</style><pattern id="Crosses" data-name="Crosses" width="57.6" height="57.6" patternUnits="userSpaceOnUse" viewBox="0 0 57.6 57.6"><rect class="cls-1" width="57.6" height="57.6"/><line class="cls-2" x1="52.5" y1="3.6" x2="55.5" y2="3.6"/><line class="cls-2" x1="38.1" y1="3.6" x2="41.1" y2="3.6"/><line class="cls-2" x1="23.7" y1="3.6" x2="26.7" y2="3.6"/><line class="cls-2" x1="9.3" y1="3.6" x2="12.3" y2="3.6"/><line class="cls-2" x1="45.3" y1="10.8" x2="48.3" y2="10.8"/><line class="cls-2" x1="30.9" y1="10.8" x2="33.9" y2="10.8"/><line class="cls-2" x1="16.5" y1="10.8" x2="19.5" y2="10.8"/><line class="cls-2" x1="2.1" y1="10.8" x2="5.1" y2="10.8"/><line class="cls-2" x1="52.5" y1="18" x2="55.5" y2="18"/><line class="cls-2" x1="38.1" y1="18" x2="41.1" y2="18"/><line class="cls-2" x1="23.7" y1="18" x2="26.7" y2="18"/><line class="cls-2" x1="9.3" y1="18" x2="12.3" y2="18"/><line class="cls-2" x1="45.3" y1="25.2" x2="48.3" y2="25.2"/><line class="cls-2" x1="30.9" y1="25.2" x2="33.9" y2="25.2"/><line class="cls-2" x1="16.5" y1="25.2" x2="19.5" y2="25.2"/><line class="cls-2" x1="2.1" y1="25.2" x2="5.1" y2="25.2"/><line class="cls-2" x1="52.5" y1="32.4" x2="55.5" y2="32.4"/><line class="cls-2" x1="38.1" y1="32.4" x2="41.1" y2="32.4"/><line class="cls-2" x1="23.7" y1="32.4" x2="26.7" y2="32.4"/><line class="cls-2" x1="9.3" y1="32.4" x2="12.3" y2="32.4"/><line class="cls-2" x1="45.3" y1="39.6" x2="48.3" y2="39.6"/><line class="cls-2" x1="30.9" y1="39.6" x2="33.9" y2="39.6"/><line class="cls-2" x1="16.5" y1="39.6" x2="19.5" y2="39.6"/><line class="cls-2" x1="2.1" y1="39.6" x2="5.1" y2="39.6"/><line class="cls-2" x1="52.5" y1="46.8" x2="55.5" y2="46.8"/><line class="cls-2" x1="38.1" y1="46.8" x2="41.1" y2="46.8"/><line class="cls-2" x1="23.7" y1="46.8" x2="26.7" y2="46.8"/><line class="cls-2" x1="9.3" y1="46.8" x2="12.3" y2="46.8"/><line class="cls-2" x1="45.3" y1="54" x2="48.3" y2="54"/><line class="cls-2" x1="30.9" y1="54" x2="33.9" y2="54"/><line class="cls-2" x1="16.5" y1="54" x2="19.5" y2="54"/><line class="cls-2" x1="2.1" y1="54" x2="5.1" y2="54"/><line class="cls-2" x1="54" y1="2.1" x2="54" y2="5.1"/><line class="cls-2" x1="39.6" y1="2.1" x2="39.6" y2="5.1"/><line class="cls-2" x1="25.2" y1="2.1" x2="25.2" y2="5.1"/><line class="cls-2" x1="10.8" y1="2.1" x2="10.8" y2="5.1"/><line class="cls-2" x1="46.8" y1="9.3" x2="46.8" y2="12.3"/><line class="cls-2" x1="32.4" y1="9.3" x2="32.4" y2="12.3"/><line class="cls-2" x1="18" y1="9.3" x2="18" y2="12.3"/><line class="cls-2" x1="3.6" y1="9.3" x2="3.6" y2="12.3"/><line class="cls-2" x1="54" y1="16.5" x2="54" y2="19.5"/><line class="cls-2" x1="39.6" y1="16.5" x2="39.6" y2="19.5"/><line class="cls-2" x1="25.2" y1="16.5" x2="25.2" y2="19.5"/><line class="cls-2" x1="10.8" y1="16.5" x2="10.8" y2="19.5"/><line class="cls-2" x1="46.8" y1="23.7" x2="46.8" y2="26.7"/><line class="cls-2" x1="32.4" y1="23.7" x2="32.4" y2="26.7"/><line class="cls-2" x1="18" y1="23.7" x2="18" y2="26.7"/><line class="cls-2" x1="3.6" y1="23.7" x2="3.6" y2="26.7"/><line class="cls-2" x1="54" y1="30.9" x2="54" y2="33.9"/><line class="cls-2" x1="39.6" y1="30.9" x2="39.6" y2="33.9"/><line class="cls-2" x1="25.2" y1="30.9" x2="25.2" y2="33.9"/><line class="cls-2" x1="10.8" y1="30.9" x2="10.8" y2="33.9"/><line class="cls-2" x1="46.8" y1="38.1" x2="46.8" y2="41.1"/><line class="cls-2" x1="32.4" y1="38.1" x2="32.4" y2="41.1"/><line class="cls-2" x1="18" y1="38.1" x2="18" y2="41.1"/><line class="cls-2" x1="3.6" y1="38.1" x2="3.6" y2="41.1"/><line class="cls-2" x1="54" y1="45.3" x2="54" y2="48.3"/><line class="cls-2" x1="39.6" y1="45.3" x2="39.6" y2="48.3"/><line class="cls-2" x1="25.2" y1="45.3" x2="25.2" y2="48.3"/><line class="cls-2" x1="10.8" y1="45.3" x2="10.8" y2="48.3"/><line class="cls-2" x1="46.8" y1="52.5" x2="46.8" y2="55.5"/><line class="cls-2" x1="32.4" y1="52.5" x2="32.4" y2="55.5"/><line class="cls-2" x1="18" y1="52.5" x2="18" y2="55.5"/><line class="cls-2" x1="3.6" y1="52.5" x2="3.6" y2="55.5"/></pattern></defs><title>logo2</title><g id="Layer_2" data-name="Layer 2"><g id="Layer_1-2" data-name="Layer 1"><circle class="cls-3" cx="148.97" cy="148.83" r="90"/><circle class="cls-4" cx="148.43" cy="148.29" r="70.36"/><text class="cls-5" transform="matrix(-0.29, -0.96, 0.96, -0.29, 78.17, 174.11)">J</text><text class="cls-5" transform="matrix(-0.09, -1, 1, -0.09, 74.74, 161.72)">O</text><text class="cls-5" transform="matrix(0.11, -0.99, 0.99, 0.11, 73.8, 144.72)">S</text><text class="cls-5" transform="translate(75.83 130.86) rotate(-72.46)">E</text><text class="cls-5" transform="translate(80.59 117.27) rotate(-61.41)">P</text><text class="cls-5" transform="matrix(0.64, -0.77, 0.77, 0.64, 87.8, 104.84)">H</text><text class="cls-5" transform="matrix(0.76, -0.65, 0.65, 0.76, 98.46, 93.16)"> </text><text class="cls-5" transform="translate(105.52 87.43) rotate(-32.33)">•</text><text class="cls-5" transform="translate(115.91 81.37) rotate(-24.23)"> </text><text class="cls-5" transform="translate(124.23 77.77) rotate(-14.96)">B</text><text class="cls-5" transform="translate(138.97 74.26) rotate(-3.06)">A</text><text class="cls-5" transform="translate(155.12 73.93) rotate(8.92)">R</text><text class="cls-5" transform="matrix(0.94, 0.35, -0.35, 0.94, 170.05, 76.75)">B</text><text class="cls-5" transform="translate(184.06 82.48) rotate(32.55)">A</text><text class="cls-5" transform="translate(197.39 91.6) rotate(44.44)">R</text><text class="cls-5" transform="matrix(0.55, 0.83, -0.83, 0.55, 207.92, 102.52)">A</text><text class="cls-5" transform="translate(216.28 116.42) rotate(66.2)"> </text><text class="cls-5" transform="translate(219.75 124.84) rotate(74.27)">•</text><text class="cls-5" transform="translate(222.59 136.52) rotate(82.3)"> </text><text class="cls-5" transform="translate(223.67 145.51) rotate(91.44)">#</text><text class="cls-5" transform="translate(223.13 160.3) rotate(105.15)">W</text><text class="cls-5" transform="translate(216.77 180.26) rotate(118.7)">E</text><text class="cls-5" transform="translate(209.51 192.74) rotate(130.23)">D</text><text class="cls-5" transform="translate(198.8 204.64) rotate(142.54)">D</text><text class="cls-5" transform="translate(185.64 213.87) rotate(152.4)">I</text><text class="cls-5" transform="translate(177.09 218.21) rotate(162.26)">N</text><text class="cls-5" transform="translate(161.57 222.66) rotate(174.5)">G</text><text class="cls-5" transform="translate(145.57 223.77) rotate(-172.78)">M</text><text class="cls-5" transform="translate(128.51 220.97) rotate(-160.58)">E</text><text class="cls-5" transform="matrix(-0.86, -0.5, 0.5, -0.86, 115.08, 215.74)">L</text><text class="cls-5" transform="matrix(-0.75, -0.66, 0.66, -0.75, 103.43, 208.53)">Z</text><text class="cls-5" transform="matrix(-0.64, -0.77, 0.77, -0.64, 92.51, 198.22)"> </text><text class="cls-5" transform="matrix(-0.52, -0.85, 0.85, -0.52, 86.87, 191.07)">•</text><text class="cls-5" transform="translate(80.95 180.61) rotate(-113.47)"> </text><text class="cls-6" transform="translate(77.42 172.24) rotate(-103.89)"> </text><text class="cls-6" transform="translate(73.63 148.91) rotate(-85.84)"> </text><path d="M133.87,159.81q1.77-1.92,3.65-4.06t3.59-4.27q1.72-2.13,3.17-4.22a23.68,23.68,0,0,0,2.25-3.95,1.61,1.61,0,0,1,1.63-1.06,1.71,1.71,0,0,1,1.32.55,1.76,1.76,0,0,1,.36,1.95,29.62,29.62,0,0,1-3,5.18q-1.92,2.69-4.15,5.34c-1.48,1.78-3,3.5-4.55,5.18s-3,3.24-4.25,4.68q0,3.84.12,7.53c0,2.46.07,4.8.07,7q0,13.2-2.59,19.57t-7.72,6.38a7,7,0,0,1-3.26-.77,7.2,7.2,0,0,1-2.54-2.2,11,11,0,0,1-1.66-3.55,17.6,17.6,0,0,1-.6-4.8,30.32,30.32,0,0,1,.79-6.5,40.24,40.24,0,0,1,2.55-7.46,55.12,55.12,0,0,1,4.53-8.13,71.32,71.32,0,0,1,6.71-8.51q0-4.12,0-8.22t.17-7.87q.12-3.76.33-7t.51-5.83a1.73,1.73,0,0,1,.6-1.15,1.78,1.78,0,0,1,1.22-.43,1.68,1.68,0,0,1,1.25.53,1.76,1.76,0,0,1,.53,1.29c0,.19-.06.82-.17,1.87s-.23,2.61-.36,4.65-.25,4.58-.36,7.61S133.87,155.68,133.87,159.81Zm-3.41,19.57c0-1.64,0-3.27,0-4.9s-.07-3.4-.1-5.32a56.88,56.88,0,0,0-5.06,7.1,54.1,54.1,0,0,0-3.43,6.71,34.3,34.3,0,0,0-1.94,6.09,25.83,25.83,0,0,0-.6,5.23,19.1,19.1,0,0,0,.19,2.71,9.3,9.3,0,0,0,.7,2.5,4.85,4.85,0,0,0,1.36,1.82,3.45,3.45,0,0,0,2.21.69,4.06,4.06,0,0,0,1.25-.24,3.68,3.68,0,0,0,1.46-1,8.81,8.81,0,0,0,1.46-2.28,19.54,19.54,0,0,0,1.3-4,48,48,0,0,0,.91-6.21Q130.46,184.56,130.46,179.38Z"/><path d="M186.87,144.84l-.63,1.18c-.32.59-.73,1.28-1.25,2.06s-1.11,1.61-1.82,2.49a18.84,18.84,0,0,1-2.3,2.42,12.3,12.3,0,0,1-2.69,1.83,6.57,6.57,0,0,1-3,.72,9.17,9.17,0,0,1-4.22-.89,11,11,0,0,1-2.83-2,15.07,15.07,0,0,1-1.87,3.07,14,14,0,0,1-2.45,2.42,11.21,11.21,0,0,1-2.85,1.61,8.71,8.71,0,0,1-3.09.57,7.49,7.49,0,0,1-5-1.72,13.28,13.28,0,0,1-3.43-4.63,29.34,29.34,0,0,1-2.14-6.74,80.46,80.46,0,0,1-1.17-8.06q-.4-4.22-.51-8.54c-.06-2.87-.09-5.61-.09-8.2q0-7.43.43-12.88a83.18,83.18,0,0,1,1.18-9.25,33,33,0,0,1,1.72-6.19A14.39,14.39,0,0,1,151,90.43a6.11,6.11,0,0,1,2.25-1.8,5.85,5.85,0,0,1,2.26-.48,5,5,0,0,1,3.14,1,8.31,8.31,0,0,1,2.3,3,17.41,17.41,0,0,1,1.42,4.58,33.64,33.64,0,0,1,.48,5.9,53.21,53.21,0,0,1-1.11,10.6,97.89,97.89,0,0,1-2.85,10.91q-1.75,5.44-3.91,10.7t-4.27,9.95a32.46,32.46,0,0,0,.86,4.49,17.41,17.41,0,0,0,1.49,3.79,8.54,8.54,0,0,0,2.16,2.63,4.5,4.5,0,0,0,2.88,1,5.51,5.51,0,0,0,3.07-.94,9,9,0,0,0,2.49-2.44,12.55,12.55,0,0,0,1.66-3.43,13.12,13.12,0,0,0,.6-3.94,14.07,14.07,0,0,0-.27-2.71,9.21,9.21,0,0,0-.81-2.44,5.53,5.53,0,0,0-1.37-1.75,3,3,0,0,0-2-.67,2.2,2.2,0,0,0-1.34.36,2.47,2.47,0,0,0-1,1.7c0,.29,0,.48,0,.57a3.45,3.45,0,0,0,.29,1.35,2.78,2.78,0,0,0,1.11,1.2,1.83,1.83,0,0,1,.81,1.58,1.62,1.62,0,0,1-.55,1.29,1.83,1.83,0,0,1-1.22.48,2.75,2.75,0,0,1-1.71-.57,5.31,5.31,0,0,1-1.27-1.46,8.18,8.18,0,0,1-.81-1.9,6.88,6.88,0,0,1-.29-1.87,6.76,6.76,0,0,1,.48-2.57,6,6,0,0,1,3.24-3.31,5.86,5.86,0,0,1,2.27-.45,6.54,6.54,0,0,1,3.58,1,8.15,8.15,0,0,1,2.52,2.54,11.71,11.71,0,0,1,1.48,3.6,17.48,17.48,0,0,1,.48,4.07,20,20,0,0,1-.14,2.35,8,8,0,0,0,.62,1,5.6,5.6,0,0,0,1.15,1.2,7.73,7.73,0,0,0,1.73,1,5.87,5.87,0,0,0,2.35.43,4,4,0,0,0,2.37-.89,13.34,13.34,0,0,0,2.35-2.2A24.61,24.61,0,0,0,182,146a27.22,27.22,0,0,0,1.58-2.81,1.83,1.83,0,0,1,1.63-1,1.64,1.64,0,0,1,1.32.58,1.88,1.88,0,0,1,.51,1.29A2.36,2.36,0,0,1,186.87,144.84Zm-37.08-6.19q1.64-4,3.31-8.46t3-9a93.25,93.25,0,0,0,2.21-9.31,51.65,51.65,0,0,0,.86-9.26c0-1.15-.06-2.35-.17-3.62a19.41,19.41,0,0,0-.6-3.47,8.26,8.26,0,0,0-1.17-2.64,2.26,2.26,0,0,0-1.9-1.06,1.73,1.73,0,0,0-1,.51,5.93,5.93,0,0,0-1.27,1.77,19.27,19.27,0,0,0-1.34,3.53,45.32,45.32,0,0,0-1.23,5.73c-.36,2.32-.67,5.11-.91,8.37s-.36,7.1-.36,11.51c0,1.47,0,3,.05,4.48s.07,3,.12,4.34.1,2.64.17,3.79S149.73,137.92,149.79,138.65Z"/><circle cx="133.51" cy="127.08" r="1.83"/></g></g></svg>