<?xml version="1.0" encoding="utf-8"?>
<!-- Generator: Adobe Illustrator 22.1.0, SVG Export Plug-In . SVG Version: 6.00 Build 0)  -->
<svg version="1.1" id="Layer_1" xmlns="http://www.w3.org/2000/svg" xmlns:xlink="http://www.w3.org/1999/xlink" x="0px" y="0px"
	 viewBox="0 0 492.9 493" style="enable-background:new 0 0 492.9 493;" xml:space="preserve">
<style type="text/css">
	.st0{fill:#FFFFFF;}
	.st1{font-family:'GothamBold';}
	.st2{font-size:41.3826px;}
	.st3{font-size:41.5499px;}
	.st4{font-size:41.4343px;}
	.st5{font-size:41.3246px;}
	.st6{font-size:41.5581px;}
	.st7{font-size:41.457px;}
	.st8{font-size:41.4529px;}
	.st9{font-size:41.2853px;}
	.st10{font-size:41.4839px;}
</style>
<title>logo</title>
<g id="Layer_2_1_">
	<g id="Layer_1-2">
		<text transform="matrix(-0.2859 -0.9583 0.9583 -0.2859 48.0903 318.1193)" class="st0 st1 st2">J</text>
		<text transform="matrix(-8.963773e-02 -0.996 0.996 -8.963773e-02 38.4224 283.326)" class="st0 st1 st3">O</text>
		<text transform="matrix(0.1141 -0.9935 0.9935 0.1141 35.7765 235.5757)" class="st0 st1 st2">S</text>
		<text transform="matrix(0.3004 -0.9538 0.9538 0.3004 41.4141 196.6206)" class="st0 st1 st2">E</text>
		<text transform="matrix(0.4773 -0.8787 0.8787 0.4773 54.7643 158.3981)" class="st0 st1 st2">P</text>
		<text transform="matrix(0.6392 -0.769 0.769 0.6392 74.9971 123.4014)" class="st0 st1 st4">H</text>
		<text transform="matrix(0.8412 -0.5408 0.5408 0.8412 124.69 74.3947)" class="st0 st1 st5">•</text>
		<text transform="matrix(0.9659 -0.2589 0.2589 0.9659 177.1465 47.1245)" class="st0 st1 st6">B</text>
		<text transform="matrix(0.9982 -5.989229e-02 5.989229e-02 0.9982 218.582 37.1356)" class="st0 st1 st7">A</text>
		<text transform="matrix(0.9884 0.1516 -0.1516 0.9884 263.9401 36.0342)" class="st0 st1 st2">R</text>
		<text transform="matrix(0.9374 0.3482 -0.3482 0.9374 305.8645 43.7796)" class="st0 st1 st2">B</text>
		<text transform="matrix(0.8486 0.5291 -0.5291 0.8486 345.3622 59.7338)" class="st0 st1 st8">A</text>
		<text transform="matrix(0.7173 0.6968 -0.6968 0.7173 382.9565 85.2129)" class="st0 st1 st2">R</text>
		<text transform="matrix(0.5562 0.8311 -0.8311 0.5562 412.686 115.7403)" class="st0 st1 st2">A</text>
		<text transform="matrix(0.28 0.96 -0.96 0.28 446.2538 178.2742)" class="st0 st1 st2">•</text>
		<text transform="matrix(-1.902288e-02 0.9998 -0.9998 -1.902288e-02 457.6153 236.3379)" class="st0 st1 st2">#</text>
		<text transform="matrix(-0.2589 0.9659 -0.9659 -0.2589 456.3582 277.9404)" class="st0 st1 st6">W</text>
		<text transform="matrix(-0.4711 0.8821 -0.8821 -0.4711 438.8456 334.1542)" class="st0 st1 st9">E</text>
		<text transform="matrix(-0.6392 0.769 -0.769 -0.6392 418.7329 369.2852)" class="st0 st1 st4">D</text>
		<text transform="matrix(-0.7891 0.6143 -0.6143 -0.7891 388.8673 403.0052)" class="st0 st1 st2">D</text>
		<text transform="matrix(-0.8825 0.4702 -0.4702 -0.8825 352.037 429.2514)" class="st0 st1 st2">I</text>
		<text transform="matrix(-0.9499 0.3125 -0.3125 -0.9499 328.1697 441.6174)" class="st0 st1 st2">N</text>
		<text transform="matrix(-0.9945 0.1044 -0.1044 -0.9945 284.6632 454.498)" class="st0 st1 st2">G</text>
		<text transform="matrix(-0.9932 -0.1167 0.1167 -0.9932 239.7316 458.0164)" class="st0 st1 st2">M</text>
		<text transform="matrix(-0.9477 -0.3192 0.3192 -0.9477 191.7227 450.5723)" class="st0 st1 st10">E</text>
		<text transform="matrix(-0.8692 -0.4944 0.4944 -0.8692 153.789 436.2169)" class="st0 st1 st2">L</text>
		<text transform="matrix(-0.7611 -0.6487 0.6487 -0.7611 120.9197 416.3423)" class="st0 st1 st2">Z</text>
		<text transform="matrix(-0.5291 -0.8486 0.8486 -0.5291 73.8296 367.7047)" class="st0 st1 st8">•</text>
		<path class="st0" d="M204.9,277.9c3.3-3.6,6.7-7.4,10.2-11.4c3.5-4,6.9-8,10.2-12c3.2-4,6.2-8,8.9-11.9c2.5-3.5,4.6-7.2,6.4-11.1
			c0.7-1.9,2.6-3.1,4.6-3c1.4,0,2.8,0.5,3.7,1.6c0.9,0.9,1.4,2.1,1.4,3.4c0,0.7-0.1,1.4-0.4,2c-2.3,5.1-5.2,10-8.5,14.6
			c-3.6,5-7.5,10.1-11.7,15.1c-4.2,5-8.5,9.9-12.8,14.7c-4.4,4.7-8.3,9.1-11.9,13.2c0.1,7.2,0.2,14.3,0.3,21.2
			c0.1,6.9,0.2,13.5,0.2,19.7c0,24.8-2.4,43.1-7.3,55.1c-4.9,12-12.1,18-21.7,18c-3.2,0-6.3-0.7-9.2-2.2c-2.8-1.5-5.3-3.6-7.2-6.2
			c-2.1-3-3.7-6.4-4.7-10c-1.2-4.4-1.8-9-1.7-13.6c0.1-6.2,0.8-12.3,2.2-18.3c1.7-7.2,4.1-14.2,7.2-21c3.6-8,7.9-15.6,12.8-22.9
			c5.7-8.5,12-16.5,18.9-24c0-7.7,0-15.4,0.1-23.2c0.1-7.7,0.2-15.1,0.5-22.1c0.2-7.1,0.5-13.7,1-19.9c0.4-6.2,0.9-11.6,1.4-16.4
			c0.1-1.3,0.7-2.4,1.7-3.2c0.9-0.8,2.2-1.2,3.4-1.2c1.3,0,2.6,0.5,3.5,1.5c1,1,1.5,2.3,1.5,3.6c0,0.5-0.2,2.3-0.5,5.3
			c-0.3,3-0.7,7.3-1,13.1c-0.4,5.8-0.7,12.9-1,21.4C205,256.2,204.9,266.2,204.9,277.9z M195.3,332.9c0-4.6,0-9.2-0.1-13.8
			s-0.2-9.6-0.3-15c-5.2,6.3-10,13-14.2,20c-3.6,6.1-6.8,12.4-9.6,18.9c-2.4,5.5-4.2,11.3-5.5,17.1c-1.1,4.8-1.6,9.8-1.7,14.7
			c0,2.6,0.2,5.1,0.5,7.6c0.3,2.4,1,4.8,2,7c0.9,2,2.2,3.7,3.9,5.1c1.8,1.4,4,2.1,6.2,2c1.2,0,2.4-0.3,3.5-0.7
			c1.6-0.6,3-1.6,4.1-2.9c1.7-1.9,3.1-4.1,4.1-6.4c1.6-3.6,2.8-7.4,3.7-11.3c1.2-5.8,2-11.6,2.5-17.5
			C195,351,195.3,342.7,195.3,332.9z"/>
		<path class="st0" d="M354.1,235.7l-1.7,3.3c-0.9,1.7-2.1,3.6-3.5,5.8c-1.4,2.2-3.2,4.6-5.1,7c-2,2.4-4.1,4.7-6.5,6.8
			c-2.3,2-4.8,3.7-7.6,5.1c-2.6,1.3-5.5,2-8.4,2c-4.1,0.1-8.2-0.7-11.9-2.5c-2.9-1.4-5.6-3.3-8-5.6c-1.4,3.1-3.2,6-5.3,8.6
			c-2,2.5-4.3,4.8-6.9,6.8c-2.4,1.9-5.2,3.4-8,4.5c-2.8,1.1-5.7,1.6-8.7,1.6c-5.1,0.1-10.1-1.6-14-4.9c-4.1-3.6-7.4-8-9.6-13
			c-2.8-6.1-4.8-12.4-6-19c-1.5-7.5-2.6-15.1-3.3-22.7c-0.8-7.9-1.2-15.9-1.4-24c-0.2-8.1-0.3-15.8-0.3-23.1c0-14,0.4-26,1.2-36.3
			c0.6-8.7,1.7-17.4,3.3-26c1-6,2.6-11.8,4.8-17.4c1.4-3.7,3.4-7.2,5.9-10.4c1.7-2.2,3.9-3.9,6.4-5.1c2-0.9,4.2-1.3,6.4-1.3
			c3.2,0,6.3,1,8.8,3c2.8,2.2,5,5.1,6.5,8.3c1.9,4.1,3.3,8.4,4,12.9c0.9,5.5,1.4,11,1.4,16.6c0,10-1.1,20-3.1,29.8
			c-2.1,10.4-4.8,20.6-8,30.7c-3.3,10.2-7,20.2-11,30.1c-4,9.9-8,19.2-12,28.1c0.5,4.3,1.3,8.5,2.4,12.6c1,3.7,2.4,7.3,4.2,10.7
			c1.5,2.9,3.6,5.4,6.1,7.4c2.3,1.8,5.2,2.8,8.1,2.8c3.1,0,6.1-0.9,8.6-2.6c2.8-1.8,5.2-4.2,7-6.9c2-3,3.6-6.2,4.7-9.6
			c1.1-3.6,1.7-7.3,1.7-11.1c0-2.6-0.2-5.1-0.7-7.6c-0.5-2.4-1.2-4.6-2.3-6.8c-0.9-1.9-2.2-3.6-3.9-4.9c-1.6-1.3-3.5-1.9-5.5-1.9
			c-1.3-0.1-2.7,0.3-3.8,1c-1.6,1.1-2.6,2.9-2.8,4.8c-0.1,0.6-0.1,1.1-0.1,1.7c0,1.3,0.3,2.6,0.8,3.8c0.7,1.4,1.8,2.6,3.1,3.4
			c1.5,1,2.4,2.7,2.3,4.5c0.1,1.4-0.5,2.7-1.5,3.7c-0.9,0.9-2.1,1.3-3.4,1.3c-1.7,0-3.4-0.6-4.8-1.7c-1.4-1.1-2.7-2.5-3.6-4.1
			c-1-1.7-1.8-3.5-2.3-5.3c-0.5-1.7-0.8-3.5-0.8-5.3c0-2.5,0.4-4.9,1.3-7.2c0.8-2.1,2.1-4,3.7-5.7c1.5-1.6,3.4-2.8,5.4-3.6
			c2-0.9,4.2-1.3,6.4-1.3c3.5-0.1,7,0.8,10.1,2.7c2.9,1.8,5.3,4.3,7.1,7.2c2,3.1,3.4,6.6,4.2,10.2c0.9,3.8,1.4,7.6,1.4,11.5
			c0,2.2-0.1,4.4-0.4,6.6c0.5,1,1.1,1.9,1.7,2.8c0.9,1.3,2,2.4,3.2,3.4c1.5,1.2,3.1,2.1,4.9,2.8c2.1,0.9,4.3,1.3,6.6,1.2
			c2.4-0.1,4.8-1,6.7-2.5c2.4-1.8,4.7-3.9,6.6-6.2c2.2-2.5,4.1-5.2,5.9-8c1.6-2.5,3.1-5.2,4.5-7.9c0.8-1.8,2.6-3,4.6-3
			c1.4,0,2.8,0.6,3.7,1.7c0.9,1,1.4,2.3,1.4,3.6C354.5,234.4,354.4,235.1,354.1,235.7z M249.7,218.3c3.1-7.6,6.2-15.5,9.3-23.8
			c3.1-8.3,6-16.8,8.5-25.5c2.5-8.6,4.6-17.4,6.2-26.2c1.6-8.6,2.4-17.3,2.4-26.1c0-3.2-0.2-6.6-0.5-10.2c-0.3-3.3-0.8-6.6-1.7-9.8
			c-0.7-2.7-1.8-5.2-3.3-7.4c-1.2-1.8-3.2-3-5.3-3c-1.1,0.1-2,0.6-2.8,1.4c-1.5,1.4-2.7,3.1-3.6,5c-1.6,3.2-2.8,6.5-3.8,9.9
			c-1.5,5.3-2.6,10.7-3.4,16.1c-1.1,6.5-1.9,14.3-2.6,23.5c-0.7,9.2-1,20-1,32.4c0,4.1,0,8.3,0.1,12.6c0.1,4.3,0.2,8.4,0.3,12.2
			c0.1,3.9,0.3,7.4,0.5,10.7C249.3,213.6,249.5,216.2,249.7,218.3z"/>
		<circle class="st0" cx="203.9" cy="185.7" r="5.1"/>
	</g>
</g>
</svg>
